<svg width="485" height="86" viewBox="0 0 485 86" fill="none" xmlns="http://www.w3.org/2000/svg">
<g clip-path="url(#clip0_108_40)">
<path d="M59.3104 30.4696C59.5504 37.1596 57.6604 43.7896 53.8304 49.2896C50.9104 53.4896 46.4804 56.1896 42.7304 59.5596C36.3004 65.3596 34.2204 73.4696 33.8104 81.8496C33.6104 85.9996 28.2204 86.7596 26.6204 82.8596C24.9504 78.7996 23.2804 74.7296 21.6004 70.6596C18.0404 61.9796 14.4704 53.2996 10.9004 44.6096C10.3704 43.3296 9.86037 42.0496 9.34037 40.7696C12.1804 38.0696 17.9904 35.6996 29.5404 35.3996V39.4496C29.5404 40.8796 31.1604 41.7096 32.3204 40.8796C36.3804 37.9896 40.4404 35.0996 44.5004 32.2096C45.5104 31.4896 45.4804 29.9896 44.4604 29.3096C40.4004 26.5896 36.3404 23.8796 32.2804 21.1596C31.1104 20.3796 29.5404 21.2196 29.5404 22.6296V26.0496C26.1904 25.8796 12.3404 25.5596 5.72037 31.5896C4.23037 27.8496 2.69037 24.1296 0.980367 20.4796C0.800367 20.0896 0.150367 18.7296 0.0203673 16.8596C-0.0396327 15.9196 -0.0596327 13.7296 1.07037 11.7396C2.45037 9.30958 5.18037 8.26958 7.57037 7.12958C15.5004 3.33958 24.5004 -0.760418 33.5004 0.119582C40.6404 0.819582 47.0904 4.57958 51.6404 10.0596C56.2704 15.6296 58.9204 22.7596 59.2904 29.9796C59.2904 30.1396 59.2904 30.2996 59.3104 30.4696Z" fill="black"/>
<path d="M114.439 50.7198C115.039 50.7198 115.539 50.9398 115.949 51.3698L120.229 55.9398C118.119 58.6298 115.499 60.6698 112.359 62.0598C109.219 63.4498 105.499 64.1498 101.179 64.1498C97.2691 64.1498 93.7491 63.4798 90.6291 62.1498C87.5091 60.8198 84.8591 58.9598 82.6691 56.5898C80.4891 54.2098 78.8091 51.3898 77.6291 48.1298C76.4491 44.8698 75.8691 41.2998 75.8691 37.4398C75.8691 34.8498 76.1491 32.3798 76.7191 30.0398C77.2791 27.6998 78.1091 25.5498 79.1891 23.5798C80.2691 21.6098 81.5691 19.8398 83.0991 18.2498C84.6191 16.6698 86.3491 15.3198 88.2691 14.1998C90.1891 13.0798 92.2791 12.2298 94.5491 11.6398C96.8191 11.0498 99.2391 10.7598 101.799 10.7598C103.719 10.7598 105.539 10.9298 107.249 11.2598C108.959 11.5998 110.569 12.0598 112.059 12.6598C113.549 13.2598 114.919 13.9898 116.179 14.8398C117.439 15.6898 118.569 16.6198 119.579 17.6298L115.939 22.5998C115.719 22.9098 115.449 23.1898 115.109 23.4298C114.769 23.6698 114.319 23.7898 113.739 23.7898C113.159 23.7898 112.579 23.5898 111.989 23.1798C111.399 22.7698 110.679 22.3198 109.829 21.8098C108.979 21.3098 107.909 20.8498 106.629 20.4398C105.349 20.0298 103.719 19.8298 101.749 19.8298C99.5691 19.8298 97.5591 20.2298 95.7391 21.0198C93.9191 21.8098 92.3491 22.9598 91.0391 24.4598C89.7291 25.9598 88.7191 27.7998 87.9991 29.9898C87.2791 32.1798 86.9191 34.6598 86.9191 37.4398C86.9191 40.2198 87.3091 42.7498 88.0891 44.9498C88.8691 47.1498 89.9391 48.9998 91.2891 50.5098C92.6491 52.0198 94.2291 53.1698 96.0391 53.9498C97.8491 54.7298 99.7891 55.1198 101.849 55.1198C103.069 55.1198 104.179 55.0598 105.179 54.9398C106.179 54.8198 107.099 54.6198 107.949 54.3298C108.799 54.0398 109.609 53.6698 110.359 53.2098C111.119 52.7498 111.879 52.1798 112.649 51.4798C112.909 51.2598 113.189 51.0798 113.479 50.9398C113.769 50.7998 114.079 50.7198 114.419 50.7198H114.439Z" fill="black"/>
<path d="M156.18 26.4504L136.16 73.5404C135.85 74.2104 135.47 74.7204 135.03 75.0504C134.59 75.3804 133.88 75.5504 132.92 75.5504H125.54L132.56 60.5704L117.66 26.4404H126.37C127.16 26.4404 127.77 26.6204 128.21 26.9804C128.64 27.3404 128.95 27.7604 129.15 28.2404L136.21 45.9904C136.47 46.6904 136.71 47.3904 136.91 48.1004C137.11 48.8104 137.31 49.5104 137.5 50.2104C137.93 48.7904 138.42 47.3804 138.98 45.9604C140.93 40.9604 142.03 35.4804 144.29 30.6404C145.78 27.4504 148.12 26.3804 151.55 26.4804C152.12 26.5004 155.95 27.0004 156.18 26.4504Z" fill="black"/>
<path d="M168.03 29.67C168.2 30.37 169.06 30.63 169.59 30.13C169.98 29.76 170.39 29.4 170.8 29.07C171.64 28.39 172.54 27.8 173.5 27.31C174.46 26.82 175.49 26.43 176.6 26.16C177.7 25.88 178.9 25.75 180.2 25.75C182.19 25.75 184.02 26.18 185.69 27.03C187.36 27.88 188.79 29.12 189.99 30.74C191.19 32.36 192.13 34.35 192.8 36.7C193.47 39.05 193.81 41.74 193.81 44.76C193.81 47.54 193.43 50.12 192.68 52.48C191.92 54.84 190.85 56.89 189.46 58.62C188.07 60.35 186.39 61.7 184.44 62.67C182.49 63.64 180.31 64.13 177.91 64.13C175.89 64.13 174.18 63.83 172.78 63.23L172.74 63.21C170.98 62.45 169.02 63.66 169.02 65.58V75.58H159.08V26.45H165.2C166.45 26.45 167.28 27.03 167.68 28.18L168.04 29.67H168.03ZM169 53.78C169.94 54.86 170.95 55.62 172.04 56.05C173.13 56.48 174.3 56.7 175.55 56.7C176.8 56.7 177.84 56.47 178.83 56.02C179.81 55.56 180.66 54.85 181.37 53.88C182.08 52.91 182.62 51.67 183.01 50.15C183.39 48.64 183.59 46.84 183.59 44.75C183.59 42.66 183.43 40.93 183.1 39.49C182.77 38.05 182.32 36.89 181.73 36C181.14 35.11 180.43 34.47 179.59 34.07C178.75 33.67 177.81 33.48 176.78 33.48C175.03 33.48 173.56 33.82 172.37 34.51C171.18 35.19 170.06 36.2 169 37.52V53.79V53.78Z" fill="black"/>
<path d="M205.969 28.8604C206.149 30.1204 207.729 30.5404 208.549 29.5704C209.189 28.8104 209.869 28.1404 210.579 27.5704C212.369 26.1404 218.199 24.0204 219.739 26.7904C220.029 27.3104 220.069 27.9304 220.079 28.5304C220.109 30.5404 219.869 32.5604 219.369 34.5104C219.299 34.7804 219.209 35.0704 218.979 35.2204C218.779 35.3604 218.509 35.3504 218.269 35.3404C216.149 35.2504 213.789 34.8404 211.749 35.6004C211.039 35.8604 210.409 36.2404 209.859 36.7204C209.309 37.2004 208.809 37.7904 208.369 38.4804C207.929 39.1804 207.509 39.9704 207.129 40.8604V63.5804H197.189V26.4504H203.059C204.069 26.4504 204.759 26.6304 205.149 26.9904C205.529 27.3504 205.809 27.9704 205.979 28.8604H205.969Z" fill="black"/>
<path d="M256.911 26.4502V63.5702H250.791C249.521 63.5702 248.701 62.9902 248.341 61.8402C248.051 60.6902 246.671 60.2202 245.741 60.9602C245.621 61.0502 245.511 61.1402 245.391 61.2302C244.601 61.8302 243.751 62.3502 242.851 62.7802C241.951 63.2102 240.981 63.5502 239.931 63.7902C238.891 64.0302 237.751 64.1502 236.531 64.1502C234.511 64.1502 232.721 63.8002 231.151 63.1102C229.581 62.4102 228.261 61.4402 227.211 60.1902C226.151 58.9402 225.351 57.4502 224.801 55.7302C224.251 54.0002 223.971 52.1102 223.971 50.0402V26.4502H233.911V50.0302C233.911 52.0902 234.381 53.7002 235.331 54.8402C236.281 55.9802 237.691 56.5502 239.561 56.5502C240.951 56.5502 242.261 56.2402 243.481 55.6302C244.701 55.0202 245.871 54.1802 246.971 53.1302V26.4502H256.911Z" fill="black"/>
<path d="M286.06 33.9304C283.8 35.4504 281.66 34.8204 279.3 33.9704C276.94 33.1204 274.54 32.3704 272.4 33.9704C271.51 34.6304 271.07 35.5004 271.07 36.5804C271.07 37.3204 271.32 37.9504 271.83 38.4504C272.33 38.9504 273 39.3904 273.83 39.7604C274.66 40.1304 275.6 40.4804 276.66 40.8004C277.72 41.1204 278.8 41.4804 279.92 41.8604C281.04 42.2404 282.12 42.6904 283.18 43.1904C284.24 43.6904 285.18 44.3204 286.01 45.0804C286.84 45.8404 287.5 46.7504 288.01 47.8204C288.51 48.8904 288.77 50.1804 288.77 51.6904C288.77 53.4904 288.44 55.1504 287.78 56.6804C287.12 58.2104 286.15 59.5204 284.88 60.6204C283.61 61.7204 282.02 62.5904 280.13 63.2104C278.23 63.8304 276.05 64.1504 273.58 64.1504C272.31 64.1504 271.05 64.0404 269.8 63.8104C268.55 63.5804 267.36 63.2604 266.24 62.8404C265.11 62.4204 264.06 61.9304 263.07 61.3804C262.09 60.8304 261.23 60.2304 260.51 59.5804C259.3 58.4904 262.4 56.6004 263.07 56.1904C267.84 53.2404 271.97 58.4504 276.56 57.0304C277.26 56.8104 277.82 56.5204 278.25 56.1504C278.68 55.7804 279 55.3604 279.2 54.8904C279.4 54.4204 279.51 53.9404 279.51 53.4304C279.51 52.6104 279.25 51.9504 278.74 51.4304C278.22 50.9104 277.55 50.4604 276.72 50.0804C275.89 49.7004 274.94 49.3504 273.86 49.0404C272.78 48.7304 271.68 48.3804 270.57 48.0004C269.46 47.6204 268.36 47.1604 267.29 46.6304C266.22 46.1004 265.27 45.4404 264.45 44.6304C263.62 43.8304 262.95 42.8404 262.43 41.6604C261.91 40.4804 261.66 39.0604 261.66 37.3804C261.66 35.8404 261.96 34.3904 262.56 33.0104C263.16 31.6304 264.06 30.4104 265.26 29.3604C266.46 28.3004 267.95 27.4604 269.74 26.8404C271.53 26.2204 273.6 25.9004 275.95 25.9004C278.59 25.9004 280.99 26.3304 283.15 27.2004C285.31 28.0604 287.09 29.1904 288.48 30.5904C289.45 31.5604 287.1 33.2304 286.49 33.6704C286.35 33.7704 286.21 33.8704 286.08 33.9604L286.06 33.9304Z" fill="black"/>
<path d="M315.079 11.3301C318.659 11.3301 321.749 11.7501 324.349 12.5901C326.949 13.4301 329.099 14.6001 330.779 16.1001C332.459 17.6001 333.699 19.3801 334.509 21.4501C335.309 23.5101 335.719 25.7601 335.719 28.1801C335.719 30.7501 335.299 33.1001 334.459 35.2401C333.619 37.3801 332.349 39.2101 330.639 40.7501C328.939 42.2901 326.789 43.4801 324.199 44.3301C321.609 45.1801 318.569 45.6101 315.089 45.6101C311.309 45.6101 308.249 48.6701 308.249 52.4501V63.5701H297.449V11.3301H315.089H315.079ZM315.079 37.3201C318.459 37.3201 320.939 36.5001 322.509 34.8701C324.079 33.2401 324.869 31.0101 324.869 28.1701C324.869 26.8701 324.669 25.6901 324.279 24.6201C323.879 23.5501 323.279 22.6401 322.479 21.8801C321.679 21.1201 320.659 20.5401 319.439 20.1301C318.219 19.7201 316.759 19.5201 315.079 19.5201H308.239V37.3001H315.079V37.3201Z" fill="black"/>
<path d="M354.37 25.8799C357.15 25.8799 359.69 26.3199 361.97 27.2099C364.25 28.0999 366.21 29.3599 367.84 31.0099C369.47 32.6499 370.73 34.6499 371.62 36.9999C372.51 39.3499 372.95 41.9999 372.95 44.9599C372.95 47.9199 372.51 50.5699 371.62 52.9299C370.73 55.2899 369.47 57.2999 367.84 58.9599C366.21 60.6199 364.25 61.8899 361.97 62.7799C359.69 63.6699 357.16 64.1099 354.37 64.1099C351.58 64.1099 349.01 63.6699 346.72 62.7799C344.43 61.8899 342.47 60.6199 340.83 58.9599C339.2 57.2999 337.93 55.2899 337.03 52.9299C336.13 50.5699 335.68 47.9099 335.68 44.9599C335.68 42.0099 336.13 39.3599 337.03 36.9999C337.93 34.6499 339.2 32.6499 340.83 31.0099C342.46 29.3699 344.42 28.0999 346.72 27.2099C349.01 26.3199 351.56 25.8799 354.37 25.8799ZM354.37 56.6599C357.2 56.6599 359.3 55.6799 360.67 53.7299C362.04 51.7699 362.72 48.8599 362.72 44.9999C362.72 41.1399 362.04 38.2599 360.67 36.3099C359.3 34.3499 357.2 33.3799 354.37 33.3799C351.54 33.3799 349.33 34.3599 347.96 36.3099C346.59 38.2699 345.91 41.1599 345.91 44.9999C345.91 48.8399 346.59 51.7699 347.96 53.7299C349.33 55.6899 351.46 56.6599 354.37 56.6599Z" fill="black"/>
<path d="M412.171 64.1501C410.491 64.1501 409.001 63.9001 407.711 63.4101C406.411 62.9201 405.321 62.2201 404.431 61.3001C403.541 60.3901 402.871 59.2801 402.411 57.9901C401.951 56.6901 401.731 55.2301 401.731 53.6001V37.0801C401.711 35.6901 401.731 33.8201 401.901 31.6201C402.071 29.3301 402.101 27.0301 402.221 24.7301C402.341 22.4301 402.341 19.7901 402.981 17.4801C403.571 15.3601 406.731 15.3701 408.441 15.3701H411.681V22.8101C411.681 24.9401 413.411 26.6701 415.541 26.6701H421.261V33.5801H411.681V52.9501C411.681 53.9801 411.931 54.8001 412.421 55.4001C412.911 56.0001 413.611 56.3001 414.531 56.3001C415.011 56.3001 415.421 56.2501 415.751 56.1401C416.081 56.0301 416.371 55.9101 416.611 55.7801C416.851 55.6501 417.071 55.5301 417.281 55.4201C417.481 55.3101 417.691 55.2601 417.911 55.2601C418.201 55.2601 418.441 55.3301 418.631 55.4601C418.821 55.5901 419.011 55.8101 419.211 56.1301L421.131 59.1801C421.771 60.2001 421.401 61.5301 420.341 62.1201C419.471 62.6101 418.541 63.0101 417.551 63.3301C415.821 63.8801 414.031 64.1601 412.191 64.1601L412.171 64.1501Z" fill="black"/>
<path d="M433.14 46.5404C433.45 50.0204 434.44 52.5603 436.11 54.1703C437.78 55.7803 439.96 56.5804 442.64 56.5804C444.01 56.5804 445.19 56.4204 446.19 56.0904C447.19 55.7704 448.06 55.4103 448.82 55.0103C449.58 54.6103 450.26 54.2504 450.87 53.9304C451.48 53.6104 452.09 53.4403 452.69 53.4403C453.46 53.4403 454.06 53.7304 454.49 54.3004L457.37 57.9004C456.31 59.1204 455.15 60.1404 453.88 60.9403C452.61 61.7403 451.29 62.3803 449.92 62.8503C448.55 63.3204 447.17 63.6404 445.78 63.8204C444.39 64.0004 443.04 64.0903 441.75 64.0903C439.16 64.0903 436.74 63.6604 434.5 62.8104C432.26 61.9604 430.3 60.7003 428.63 59.0303C426.96 57.3603 425.65 55.2903 424.69 52.8204C423.73 50.3504 423.25 47.4804 423.25 44.2204C423.25 41.7004 423.66 39.3204 424.49 37.0904C425.32 34.8604 426.51 32.9104 428.07 31.2604C429.63 29.6004 431.53 28.2904 433.76 27.3204C435.99 26.3504 438.51 25.8604 441.32 25.8604C443.7 25.8604 445.89 26.2404 447.89 26.9904C449.89 27.7504 451.62 28.8404 453.07 30.2804C454.52 31.7204 455.65 33.4904 456.45 35.5904C457.25 37.6904 457.66 40.0804 457.66 42.7704C457.66 43.5204 457.62 44.1304 457.55 44.6104C457.48 45.0904 457.36 45.4703 457.19 45.7603C457.02 46.0504 456.79 46.2503 456.51 46.3503C456.22 46.4604 455.85 46.5103 455.39 46.5103H433.14V46.5404ZM448.76 40.6404C448.76 39.6104 448.62 38.6203 448.35 37.6903C448.07 36.7503 447.64 35.9304 447.04 35.2104C446.44 34.4903 445.68 33.9204 444.77 33.5004C443.86 33.0804 442.77 32.8703 441.49 32.8703C439.11 32.8703 437.25 33.5404 435.91 34.8904C434.57 36.2404 433.69 38.1504 433.28 40.6504H448.76V40.6404Z" fill="black"/>
<path d="M385.001 28.8604C385.181 30.1204 386.761 30.5404 387.581 29.5704C388.221 28.8104 388.901 28.1404 389.611 27.5704C391.401 26.1404 397.231 24.0204 398.771 26.7904C399.061 27.3104 399.101 27.9304 399.111 28.5304C399.141 30.5404 398.901 32.5604 398.401 34.5104C398.331 34.7804 398.241 35.0704 398.011 35.2204C397.811 35.3604 397.541 35.3504 397.301 35.3404C395.181 35.2504 392.821 34.8404 390.781 35.6004C390.071 35.8604 389.441 36.2404 388.891 36.7204C388.341 37.2004 387.841 37.7904 387.401 38.4804C386.961 39.1804 386.541 39.9704 386.161 40.8604V63.5804H376.221V26.4504H382.091C383.101 26.4504 383.791 26.6304 384.181 26.9904C384.561 27.3504 384.841 27.9704 385.011 28.8604H385.001Z" fill="black"/>
<path d="M470.43 28.8604C470.61 30.1204 472.19 30.5404 473.01 29.5704C473.65 28.8104 474.33 28.1404 475.04 27.5704C476.83 26.1404 482.66 24.0204 484.2 26.7904C484.49 27.3104 484.53 27.9304 484.54 28.5304C484.57 30.5404 484.33 32.5604 483.83 34.5104C483.76 34.7804 483.67 35.0704 483.44 35.2204C483.24 35.3604 482.97 35.3504 482.73 35.3404C480.61 35.2504 478.25 34.8404 476.21 35.6004C475.5 35.8604 474.87 36.2404 474.32 36.7204C473.77 37.2004 473.27 37.7904 472.83 38.4804C472.39 39.1804 471.97 39.9704 471.59 40.8604V63.5804H461.65V26.4504H467.52C468.53 26.4504 469.22 26.6304 469.61 26.9904C469.99 27.3504 470.27 27.9704 470.44 28.8604H470.43Z" fill="black"/>
</g>
<defs>
<clipPath id="clip0_108_40">
<rect width="484.54" height="85.41" fill="white"/>
</clipPath>
</defs>
</svg>
